<svg height="260pt" preserveAspectRatio="xMidYMid meet" viewBox="0 0 260 260" width="260pt" xmlns="http://www.w3.org/2000/svg"><g transform="matrix(.1 0 0 -.1 0 260)"><path d="m1086 2544c-646-117-1107-716-1046-1359 29-302 143-554 348-767 234-245 525-378 862-395 502-25 973 255 1196 712 240 494 144 1068-245 1455-190 189-422 309-687 355-108 19-322 18-428-1zm531-931c434-438 662-675 663-689 0-43-5-44-410-44h-387l-258-266c-239-245-260-265-289-262l-31 3-3 950c-2 884-1 951 15 963 9 6 22 12 27 12 6 0 309-300 673-667z"/><path d="m980 1548v-588h238 237l175 175 175 175-413 413-412 413z"/><path d="m1710 1105-145-145h289 289l-19 23c-29 36-258 267-264 267-3 0-70-65-150-145z"/><path d="m980 683v-198l195 195c107 107 195 196 195 197 0 2-88 3-195 3h-195z"/></g></svg>